<?xml version="1.0" encoding="UTF-8"?>
<svg id="Layer_2" data-name="Layer 2" xmlns="http://www.w3.org/2000/svg" viewBox="0 0 2100 2100">
  <defs>
    <style>
      .cls-1 {
        fill: none;
      }

      .cls-2 {
        fill: #ffc144;
      }

      .cls-3 {
        fill: #1b1928;
      }

      .cls-4 {
        fill: #4e6678;
      }
    </style>
  </defs>
  <g id="OBJECT">
    <g>
      <circle class="cls-4" cx="1050.5" cy="1050.5" r="796.5"/>
      <circle class="cls-3" cx="1050" cy="1050" r="930.25"/>
      <rect class="cls-1" width="2100" height="2100"/>
      <g>
        <path class="cls-2" d="m678.69,1552.39c105.14-14.3,116.74-25.9,131.04-131.04,14.31,105.14,25.9,116.73,131.04,131.04-105.14,14.3-116.73,25.89-131.04,131.03-14.3-105.14-25.89-116.73-131.04-131.03Z"/>
        <path class="cls-2" d="m1184.55,613.15c172.36-23.44,191.36-42.44,214.8-214.78,23.44,172.34,42.44,191.34,214.78,214.78-172.33,23.44-191.34,42.44-214.78,214.78-23.44-172.33-42.44-191.34-214.8-214.78Z"/>
        <path class="cls-2" d="m241.81,1050c723.34-46.85,761.34-84.84,808.19-808.19,46.85,723.35,84.84,761.34,808.19,808.19-723.35,46.86-761.34,84.84-808.19,808.19-46.85-723.35-84.84-761.33-808.19-808.19Z"/>
      </g>
    </g>
  </g>
</svg>